<?xml version="1.0" encoding="UTF-8"?>
<svg version="1.1" xmlns="http://www.w3.org/2000/svg" width="46" height="47">
<path d="M0 0 C0 0.66 0 1.32 0 2 C0.5775 2.226875 1.155 2.45375 1.75 2.6875 C7.09378672 5.80470892 8.94121792 10.57243234 10.5390625 16.28515625 C11.27638428 20.62785657 10.76098061 24.69083269 10 29 C9.34 29 8.68 29 8 29 C7.75636719 29.74894531 7.51273438 30.49789062 7.26171875 31.26953125 C4.66856212 36.881347 -1.0094143 40.11134567 -6.5 42.5625 C-12.15488501 43.26936063 -16.6009021 42.6618336 -21.3515625 39.37109375 C-23.37291882 37.66044061 -25.2666824 36.00252497 -27 34 C-27 33.34 -27 32.68 -27 32 C-27.66 32 -28.32 32 -29 32 C-31.38111961 25.96783031 -33.16127571 19.60253532 -31.12109375 13.2734375 C-27.67511805 5.94938884 -23.45507754 2.19503323 -16 -1 C-10.4142696 -2.65032944 -5.5219633 -1.32046949 0 0 Z M-24.875 9.6875 C-27.99176372 14.54598462 -28.65284461 18.73577697 -27.51953125 24.40234375 C-25.89153779 29.8080016 -23.81711641 34.30973015 -18.8125 37.3125 C-11.78634052 39.03000565 -5.4767315 38.23836575 1 35 C1 34.34 1 33.68 1 33 C1.598125 32.79375 2.19625 32.5875 2.8125 32.375 C5.93741749 30.41076615 6.70703876 28.42634728 8 25 C8.56612651 19.81050696 7.92683272 15.37099361 5 11 C0.41158271 6.20128025 -3.41983559 2.91437609 -10.25 2.6875 C-16.72992175 2.78217418 -20.25298203 5.36691798 -24.875 9.6875 Z " fill="#EAC66B" transform="translate(34,4)"/>
<path d="M0 0 C2.4375 0.8125 2.4375 0.8125 4.4375 2.8125 C4.07473355 5.64207829 3.34055236 8.10334291 2.4375 10.8125 C3.8469273 13.06155348 3.8469273 13.06155348 6.4375 14.8125 C8.61743587 14.71807324 8.61743587 14.71807324 10.9375 14.25 C13.30859375 13.84375 13.30859375 13.84375 15.4375 13.8125 C18 16.25 18 16.25 19.4375 18.8125 C18.7775 18.8125 18.1175 18.8125 17.4375 18.8125 C17.19 19.451875 16.9425 20.09125 16.6875 20.75 C15.4375 22.8125 15.4375 22.8125 13.73046875 23.55859375 C8.59663366 24.12707634 3.73349294 21.39126793 -0.5625 18.8125 C-4.11263499 14.88905184 -5.39195798 11.13420068 -6.0625 5.9375 C-5.5625 2.8125 -5.5625 2.8125 -4.375 0.8125 C-2.5625 -0.1875 -2.5625 -0.1875 0 0 Z " fill="#E1B42D" transform="translate(17.5625,13.1875)"/>
<path d="M0 0 C0.99 0.33 1.98 0.66 3 1 C5.27626071 7.25971696 4.98864671 12.48027575 4 19 C3.34 19 2.68 19 2 19 C1.75636719 19.74894531 1.51273438 20.49789062 1.26171875 21.26953125 C-1.33143788 26.881347 -7.0094143 30.11134567 -12.5 32.5625 C-18.12573811 33.26571726 -22.5514168 32.647529 -27.31640625 29.44140625 C-33.29084546 24.47161335 -33.29084546 24.47161335 -34 20 C-31.625 20.75 -31.625 20.75 -29 22 C-28.67 22.680625 -28.34 23.36125 -28 24.0625 C-27.17375371 26.20084612 -27.17375371 26.20084612 -24.9375 26.75 C-17.83883288 27.35414188 -11.86363209 26.99669297 -5 25 C-5 24.34 -5 23.68 -5 23 C-3.66666667 21.66666667 -2.33333333 20.33333333 -1 19 C2.79000048 13.5044993 0.8721639 6.21416777 0 0 Z " fill="#DBBD53" transform="translate(40,14)"/>
<path d="M0 0 C0 0.66 0 1.32 0 2 C0.5775 2.226875 1.155 2.45375 1.75 2.6875 C4.5663661 4.33038023 6.08077114 6.39533227 8 9 C7.34 10.32 6.68 11.64 6 13 C5.278125 12.236875 4.55625 11.47375 3.8125 10.6875 C-1.69418354 5.42555795 -6.64943041 4.21320081 -14 3 C-14 2.67 -14 2.34 -14 2 C-11.03 2 -8.06 2 -5 2 C-5 1.34 -5 0.68 -5 0 C-9.95 0.66 -14.9 1.32 -20 2 C-19 0 -19 0 -17.28515625 -0.703125 C-11.03923866 -2.23990613 -6.1734811 -1.67547504 0 0 Z " fill="#EFD584" transform="translate(34,4)"/>
<path d="M0 0 C0.99 0.33 1.98 0.66 3 1 C5.27626071 7.25971696 4.98864671 12.48027575 4 19 C3.34 19 2.68 19 2 19 C1.79375 19.721875 1.5875 20.44375 1.375 21.1875 C-0.50917059 25.0414853 -2.44617527 26.58339918 -6 29 C-8.375 28.8125 -8.375 28.8125 -10 28 C-8.625 26.5 -8.625 26.5 -7 25 C-6.34 25 -5.68 25 -5 25 C-5 24.34 -5 23.68 -5 23 C-3 21 -3 21 -1 19 C2.79000048 13.5044993 0.8721639 6.21416777 0 0 Z " fill="#E0BA4E" transform="translate(40,14)"/>
<path d="M0 0 C2.33944736 0.28730055 4.6739143 0.61936779 7 1 C6.25749403 5.08378283 5.17076699 9.01939223 4 13 C1 12 1 12 -0.1875 10.375 C-1.28380954 7.17040287 -1.19020208 4.36023674 -1 1 C-0.67 0.67 -0.34 0.34 0 0 Z " fill="#E4AD14" transform="translate(13,15)"/>
<path d="M0 0 C4.75 0.75 4.75 0.75 7 3 C6.63723355 5.82957829 5.90305236 8.29084291 5 11 C7.72606304 14.28814599 7.72606304 14.28814599 11.75 15.25 C12.86375 15.12625 12.86375 15.12625 14 15 C13.01 16.485 13.01 16.485 12 18 C10.68 18 9.36 18 8 18 C8 17.34 8 16.68 8 16 C7.01 16 6.02 16 5 16 C5 16.99 5 17.98 5 19 C4.01 19 3.02 19 2 19 C0.50171128 15.11764181 1.56889418 12.56550712 2.9375 8.75 C3.31777344 7.67234375 3.69804687 6.5946875 4.08984375 5.484375 C4.39019531 4.66453125 4.69054687 3.8446875 5 3 C2.03 2.505 2.03 2.505 -1 2 C-0.67 1.34 -0.34 0.68 0 0 Z " fill="#EBC760" transform="translate(15,13)"/>
<path d="M0 0 C0 0.66 0 1.32 0 2 C-0.60328125 2.04898437 -1.2065625 2.09796875 -1.828125 2.1484375 C-3.02695312 2.26058594 -3.02695312 2.26058594 -4.25 2.375 C-5.43335938 2.47941406 -5.43335938 2.47941406 -6.640625 2.5859375 C-9.02082901 2.88541588 -9.02082901 2.88541588 -11.046875 4.0390625 C-13 5 -13 5 -17 5 C-17 4.01 -17 3.02 -17 2 C-11.21642935 -0.01167675 -6.09781001 -0.22084624 0 0 Z " fill="#E0B647" transform="translate(29,4)"/>
<path d="M0 0 C1.18681726 3.56045177 1.09689832 6.43808337 1.0625 10.1875 C1.05347656 11.45980469 1.04445313 12.73210938 1.03515625 14.04296875 C1.02355469 15.01878906 1.01195312 15.99460937 1 17 C-1.92914823 14.58543187 -2.50381991 12.80242058 -2.875 9.0625 C-2.97554688 8.20785156 -3.07609375 7.35320313 -3.1796875 6.47265625 C-2.96073362 3.45966045 -1.9855198 2.21699232 0 0 Z " fill="#DABB4A" transform="translate(5,16)"/>
<path d="M0 0 C0.66 0.66 1.32 1.32 2 2 C0.56879256 2.55808089 -0.87030355 3.09596462 -2.3125 3.625 C-3.11300781 3.92664062 -3.91351563 4.22828125 -4.73828125 4.5390625 C-5.48464844 4.69117188 -6.23101563 4.84328125 -7 5 C-7.99 4.34 -8.98 3.68 -10 3 C-9.01 2.67 -8.02 2.34 -7 2 C-8.65 1.67 -10.3 1.34 -12 1 C-12 0.67 -12 0.34 -12 0 C-3.1409396 -1.32885906 -3.1409396 -1.32885906 0 0 Z " fill="#EFD483" transform="translate(31,42)"/>
<path d="M0 0 C4.75 0.75 4.75 0.75 7 3 C6.77256695 5.95662966 6.38764062 7.55033688 4.4375 9.8125 C3.963125 10.204375 3.48875 10.59625 3 11 C3.66666667 8.33333333 4.33333333 5.66666667 5 3 C2.03 2.505 2.03 2.505 -1 2 C-0.67 1.34 -0.34 0.68 0 0 Z " fill="#EDCC73" transform="translate(15,13)"/>
<path d="M0 0 C2.97 0.495 2.97 0.495 6 1 C5.67 2.65 5.34 4.3 5 6 C4.01 4.68 3.02 3.36 2 2 C1.67 3.65 1.34 5.3 1 7 C0.34 6.67 -0.32 6.34 -1 6 C-0.67 4.02 -0.34 2.04 0 0 Z " fill="#DEAB15" transform="translate(14,15)"/>
<path d="M0 0 C1.65 1.65 3.3 3.3 5 5 C4.34 6.32 3.68 7.64 3 9 C0.7525351 6.7525351 -0.02484536 5.0004758 -1 2 C-0.67 1.34 -0.34 0.68 0 0 Z " fill="#E9C76B" transform="translate(37,8)"/>
<path d="M0 0 C4.38332057 0.82187261 8.67940177 1.90154282 13 3 C11.296875 4.1171875 11.296875 4.1171875 9 5 C6.640625 4.3203125 6.640625 4.3203125 4.25 3.125 C3.45078125 2.73570313 2.6515625 2.34640625 1.828125 1.9453125 C0.92320313 1.47738281 0.92320313 1.47738281 0 1 C0 0.67 0 0.34 0 0 Z " fill="#F0D27C" transform="translate(20,32)"/>
<path d="M0 0 C1.99087011 3.98174021 2.29001869 8.63868626 3 13 C-0.06734237 10.06602035 -0.97028556 8.84686156 -1.125 4.4375 C-1 1 -1 1 0 0 Z " fill="#EDCD73" transform="translate(13,15)"/>
<path d="M0 0 C0.66 0 1.32 0 2 0 C2 0.66 2 1.32 2 2 C2.99 2.33 3.98 2.66 5 3 C3.02 3.99 3.02 3.99 1 5 C1 4.34 1 3.68 1 3 C-1.475 4.485 -1.475 4.485 -4 6 C-2.84826645 3.53199953 -1.95216435 1.95216435 0 0 Z " fill="#F2DA83" transform="translate(10,7)"/>
<path d="M0 0 C2 1 2 1 2 1 Z " fill="#FF7FFF" transform="translate(7,4)"/>
<path d="" fill="#FFFFFF" transform="translate(0,0)"/>
<path d="" fill="#FFFFFF" transform="translate(0,0)"/>
<path d="" fill="#FFFFFF" transform="translate(0,0)"/>
<path d="" fill="#FFFFFF" transform="translate(0,0)"/>
<path d="" fill="#FFFFFF" transform="translate(0,0)"/>
<path d="" fill="#FFFFFF" transform="translate(0,0)"/>
<path d="" fill="#FEFFFF" transform="translate(0,0)"/>
<path d="" fill="#FFFFFF" transform="translate(0,0)"/>
<path d="" fill="#FFFFFF" transform="translate(0,0)"/>
<path d="" fill="#FFFFFF" transform="translate(0,0)"/>
<path d="" fill="#FEFFFF" transform="translate(0,0)"/>
<path d="" fill="#FFFFFF" transform="translate(0,0)"/>
<path d="" fill="#FFFFFF" transform="translate(0,0)"/>
<path d="" fill="#FFFFFF" transform="translate(0,0)"/>
<path d="" fill="#FFFFFF" transform="translate(0,0)"/>
<path d="" fill="#FFFFFF" transform="translate(0,0)"/>
<path d="" fill="#FFFFFF" transform="translate(0,0)"/>
<path d="" fill="#FFFFFF" transform="translate(0,0)"/>
<path d="" fill="#FFFFFF" transform="translate(0,0)"/>
<path d="" fill="#FFFFFF" transform="translate(0,0)"/>
<path d="" fill="#FFFFFF" transform="translate(0,0)"/>
<path d="" fill="#FFFFFE" transform="translate(0,0)"/>
<path d="" fill="#FFFF00" transform="translate(0,0)"/>
<path d="" fill="#FFFFFF" transform="translate(0,0)"/>
<path d="" fill="#FFFFFF" transform="translate(0,0)"/>
<path d="" fill="#FFFFFF" transform="translate(0,0)"/>
<path d="" fill="#FFFFFF" transform="translate(0,0)"/>
<path d="" fill="#FFFFFF" transform="translate(0,0)"/>
<path d="" fill="#FFFFFF" transform="translate(0,0)"/>
<path d="" fill="#FFFFFF" transform="translate(0,0)"/>
<path d="" fill="#FFFF00" transform="translate(0,0)"/>
<path d="" fill="#FFFFFF" transform="translate(0,0)"/>
<path d="" fill="#FFFFFF" transform="translate(0,0)"/>
<path d="" fill="#FFFFFF" transform="translate(0,0)"/>
<path d="" fill="#FFFFFF" transform="translate(0,0)"/>
<path d="" fill="#FFFFFF" transform="translate(0,0)"/>
<path d="" fill="#FFFFFF" transform="translate(0,0)"/>
<path d="" fill="#FFFFFF" transform="translate(0,0)"/>
<path d="" fill="#FFFFFF" transform="translate(0,0)"/>
<path d="" fill="#FFFFFF" transform="translate(0,0)"/>
<path d="" fill="#FFFFFF" transform="translate(0,0)"/>
<path d="" fill="#FFFFFF" transform="translate(0,0)"/>
<path d="" fill="#FFFFFF" transform="translate(0,0)"/>
<path d="" fill="#FFFFFF" transform="translate(0,0)"/>
</svg>
